HIERARCHY
ROOT Root
{
  OFFSET 0.0 0.0 0.0
  CHANNELS 6 Xposition Yposition Zposition Zrotation Yrotation Xrotation
  JOINT Hips
  {
    OFFSET 0.0 100.0 0.0
    CHANNELS 6 Xposition Yposition Zposition Zrotation Yrotation Xrotation
    JOINT Spine1
    {
      OFFSET -0.013727 5.003763 -0.053727
      CHANNELS 3 Zrotation Yrotation Xrotation
      JOINT Spine2
      {
        OFFSET -0.0 7.125301 -0.029825
        CHANNELS 3 Zrotation Yrotation Xrotation
        JOINT Chest
        {
          OFFSET -1e-06 7.550063 -0.815971
          CHANNELS 3 Zrotation Yrotation Xrotation
          JOINT Neck1
          {
            OFFSET -0.181677 26.311295 -0.553348
            CHANNELS 3 Zrotation Yrotation Xrotation
            JOINT Neck2
            {
              OFFSET -3e-06 7.709397 2.302585
              CHANNELS 3 Zrotation Yrotation Xrotation
              JOINT Head
              {
                OFFSET -5e-06 6.128916 1.953709
                CHANNELS 3 Zrotation Yrotation Xrotation
                JOINT HeadEnd
                {
                  OFFSET 0.003598 16.065403 -1.835379
                  CHANNELS 3 Zrotation Yrotation Xrotation
                }
                JOINT Jaw
                {
                  OFFSET 0.002637 0.475592 3.094941
                  CHANNELS 3 Zrotation Yrotation Xrotation
                }
                JOINT LeftEye
                {
                  OFFSET 3.206381 5.380205 7.586883
                  CHANNELS 3 Zrotation Yrotation Xrotation
                }
                JOINT RightEye
                {
                  OFFSET -3.22244 5.361869 7.558234
                  CHANNELS 3 Zrotation Yrotation Xrotation
                }
              }
            }
          }
          JOINT LeftShoulder
          {
            OFFSET 1.621652 23.237164 5.113413
            CHANNELS 3 Zrotation Yrotation Xrotation
            JOINT LeftArm
            {
              OFFSET 14.919846 2e-06 -5.502326
              CHANNELS 3 Zrotation Yrotation Xrotation
              JOINT LeftForeArm
              {
                OFFSET 28.739307 0.0 -0.002588
                CHANNELS 3 Zrotation Yrotation Xrotation
                JOINT LeftHand
                {
                  OFFSET 27.093981 -1e-06 0.002609
                  CHANNELS 3 Zrotation Yrotation Xrotation
                  JOINT LeftHandThumb1
                  {
                    OFFSET 2.276482 -1.392045 3.191413
                    CHANNELS 3 Zrotation Yrotation Xrotation
                    JOINT LeftHandThumb2
                    {
                      OFFSET 4.012836 -1.828127 1.641654
                      CHANNELS 3 Zrotation Yrotation Xrotation
                      JOINT LeftHandThumb3
                      {
                        OFFSET 2.798515 0.0 -3e-06
                        CHANNELS 3 Zrotation Yrotation Xrotation
                        JOINT LeftHandThumbEnd
                        {
                          OFFSET 3.180793 -4e-06 4e-06
                          CHANNELS 3 Zrotation Yrotation Xrotation
                        }
                      }
                    }
                  }
                  JOINT LeftHandIndex1
                  {
                    OFFSET 3.247555 -0.531998 2.296169
                    CHANNELS 3 Zrotation Yrotation Xrotation
                    JOINT LeftHandIndex2
                    {
                      OFFSET 6.364578 0.01206 0.1786
                      CHANNELS 3 Zrotation Yrotation Xrotation
                      JOINT LeftHandIndex3
                      {
                        OFFSET 3.662364 0.0 0.0
                        CHANNELS 3 Zrotation Yrotation Xrotation
                        JOINT LeftHandIndex4
                        {
                          OFFSET 2.329242 4e-06 4e-06
                          CHANNELS 3 Zrotation Yrotation Xrotation
                          JOINT LeftHandIndexEnd
                          {
                            OFFSET 2.759615 -0.180537 -0.113024
                            CHANNELS 3 Zrotation Yrotation Xrotation
                          }
                        }
                      }
                    }
                  }
                  JOINT LeftHandMiddle1
                  {
                    OFFSET 3.163495 0.240981 1.000332
                    CHANNELS 3 Zrotation Yrotation Xrotation
                    JOINT LeftHandMiddle2
                    {
                      OFFSET 6.19078 -0.259278 -1.002548
                      CHANNELS 3 Zrotation Yrotation Xrotation
                      JOINT LeftHandMiddle3
                      {
                        OFFSET 4.35652 -4e-06 -1e-06
                        CHANNELS 3 Zrotation Yrotation Xrotation
                        JOINT LeftHandMiddle4
                        {
                          OFFSET 2.996877 -8e-06 0.0
                          CHANNELS 3 Zrotation Yrotation Xrotation
                          JOINT LeftHandMiddleEnd
                          {
                            OFFSET 2.304287 -0.294569 -0.031741
                            CHANNELS 3 Zrotation Yrotation Xrotation
                          }
                        }
                      }
                    }
                  }
                  JOINT LeftHandRing1
                  {
                    OFFSET 2.882643 -0.053652 -0.322543
                    CHANNELS 3 Zrotation Yrotation Xrotation
                    JOINT LeftHandRing2
                    {
                      OFFSET 5.854541 -0.486202 -1.373841
                      CHANNELS 3 Zrotation Yrotation Xrotation
                      JOINT LeftHandRing3
                      {
                        OFFSET 4.350578 0.0 3e-06
                        CHANNELS 3 Zrotation Yrotation Xrotation
                        JOINT LeftHandRing4
                        {
                          OFFSET 2.651321 7e-06 2e-06
                          CHANNELS 3 Zrotation Yrotation Xrotation
                          JOINT LeftHandRingEnd
                          {
                            OFFSET 1.936105 0.077687 -7.1e-05
                            CHANNELS 3 Zrotation Yrotation Xrotation
                          }
                        }
                      }
                    }
                  }
                  JOINT LeftHandPinky1
                  {
                    OFFSET 2.8655 -0.310005 -1.600378
                    CHANNELS 3 Zrotation Yrotation Xrotation
                    JOINT LeftHandPinky2
                    {
                      OFFSET 5.087849 -1.331141 -1.77123
                      CHANNELS 3 Zrotation Yrotation Xrotation
                      JOINT LeftHandPinky3
                      {
                        OFFSET 3.070974 4e-06 0.0
                        CHANNELS 3 Zrotation Yrotation Xrotation
                        JOINT LeftHandPinky4
                        {
                          OFFSET 1.549672 0.0 1e-06
                          CHANNELS 3 Zrotation Yrotation Xrotation
                          JOINT LeftHandPinkyEnd
                          {
                            OFFSET 1.944893 -0.157802 0.057219
                            CHANNELS 3 Zrotation Yrotation Xrotation
                          }
                        }
                      }
                    }
                  }
                }
              }
            }
          }
          JOINT RightShoulder
          {
            OFFSET -1.380118 23.180309 5.214158
            CHANNELS 3 Zrotation Yrotation Xrotation
            JOINT RightArm
            {
              OFFSET -15.037196 1.2e-05 -5.545604
              CHANNELS 3 Zrotation Yrotation Xrotation
              JOINT RightForeArm
              {
                OFFSET -28.736639 2e-06 -0.002597
                CHANNELS 3 Zrotation Yrotation Xrotation
                JOINT RightHand
                {
                  OFFSET -27.133619 -0.0 0.002613
                  CHANNELS 3 Zrotation Yrotation Xrotation
                  JOINT RightHandThumb1
                  {
                    OFFSET -2.274032 -1.383988 3.163127
                    CHANNELS 3 Zrotation Yrotation Xrotation
                    JOINT RightHandThumb2
                    {
                      OFFSET -4.011429 -1.827466 1.640914
                      CHANNELS 3 Zrotation Yrotation Xrotation
                      JOINT RightHandThumb3
                      {
                        OFFSET -2.794935 -4e-06 -3e-06
                        CHANNELS 3 Zrotation Yrotation Xrotation
                        JOINT RightHandThumbEnd
                        {
                          OFFSET -3.183852 4e-06 1e-06
                          CHANNELS 3 Zrotation Yrotation Xrotation
                        }
                      }
                    }
                  }
                  JOINT RightHandIndex1
                  {
                    OFFSET -3.253266 -0.520057 2.282866
                    CHANNELS 3 Zrotation Yrotation Xrotation
                    JOINT RightHandIndex2
                    {
                      OFFSET -6.341917 0.012471 0.178266
                      CHANNELS 3 Zrotation Yrotation Xrotation
                      JOINT RightHandIndex3
                      {
                        OFFSET -3.654871 -8e-06 -0.0
                        CHANNELS 3 Zrotation Yrotation Xrotation
                        JOINT RightHandIndex4
                        {
                          OFFSET -2.327586 0.0 1e-06
                          CHANNELS 3 Zrotation Yrotation Xrotation
                          JOINT RightHandIndexEnd
                          {
                            OFFSET -2.76179 -0.180656 -0.113078
                            CHANNELS 3 Zrotation Yrotation Xrotation
                          }
                        }
                      }
                    }
                  }
                  JOINT RightHandMiddle1
                  {
                    OFFSET -3.168106 0.246593 1.00103
                    CHANNELS 3 Zrotation Yrotation Xrotation
                    JOINT RightHandMiddle2
                    {
                      OFFSET -6.180828 -0.258836 -1.000895
                      CHANNELS 3 Zrotation Yrotation Xrotation
                      JOINT RightHandMiddle3
                      {
                        OFFSET -4.348901 0.0 -0.0
                        CHANNELS 3 Zrotation Yrotation Xrotation
                        JOINT RightHandMiddle4
                        {
                          OFFSET -3.00024 -4e-06 -2e-06
                          CHANNELS 3 Zrotation Yrotation Xrotation
                          JOINT RightHandMiddleEnd
                          {
                            OFFSET -2.30252 -0.29437 -0.031706
                            CHANNELS 3 Zrotation Yrotation Xrotation
                          }
                        }
                      }
                    }
                  }
                  JOINT RightHandRing1
                  {
                    OFFSET -2.88569 -0.067952 -0.308858
                    CHANNELS 3 Zrotation Yrotation Xrotation
                    JOINT RightHandRing2
                    {
                      OFFSET -5.854198 -0.48613 -1.373731
                      CHANNELS 3 Zrotation Yrotation Xrotation
                      JOINT RightHandRing3
                      {
                        OFFSET -4.33881 -4e-06 -0.0
                        CHANNELS 3 Zrotation Yrotation Xrotation
                        JOINT RightHandRing4
                        {
                          OFFSET -2.654903 -4e-06 4e-06
                          CHANNELS 3 Zrotation Yrotation Xrotation
                          JOINT RightHandRingEnd
                          {
                            OFFSET -1.933568 0.077527 -5.2e-05
                            CHANNELS 3 Zrotation Yrotation Xrotation
                          }
                        }
                      }
                    }
                  }
                  JOINT RightHandPinky1
                  {
                    OFFSET -2.866425 -0.342796 -1.584145
                    CHANNELS 3 Zrotation Yrotation Xrotation
                    JOINT RightHandPinky2
                    {
                      OFFSET -5.091371 -1.332055 -1.772385
                      CHANNELS 3 Zrotation Yrotation Xrotation
                      JOINT RightHandPinky3
                      {
                        OFFSET -3.062664 -4e-06 1e-06
                        CHANNELS 3 Zrotation Yrotation Xrotation
                        JOINT RightHandPinky4
                        {
                          OFFSET -1.546529 4e-06 -2e-06
                          CHANNELS 3 Zrotation Yrotation Xrotation
                          JOINT RightHandPinkyEnd
                          {
                            OFFSET -1.945119 -0.157718 0.057211
                            CHANNELS 3 Zrotation Yrotation Xrotation
                          }
                        }
                      }
                    }
                  }
                }
              }
            }
          }
        }
      }
    }
    JOINT LeftLeg
    {
      OFFSET 10.043214 -8.434526 2.595655
      CHANNELS 3 Zrotation Yrotation Xrotation
      JOINT LeftShin
      {
        OFFSET -1e-06 -43.221752 -0.802913
        CHANNELS 3 Zrotation Yrotation Xrotation
        JOINT LeftFoot
        {
          OFFSET 1e-06 -42.155094 -3.481523
          CHANNELS 3 Zrotation Yrotation Xrotation
          JOINT LeftToeBase
          {
            OFFSET 0.0 -5.059472 13.231529
            CHANNELS 3 Zrotation Yrotation Xrotation
            JOINT LeftToeEnd
            {
              OFFSET -0.009607 -1.647619 6.513017
              CHANNELS 3 Zrotation Yrotation Xrotation
            }
          }
        }
      }
    }
    JOINT RightLeg
    {
      OFFSET -10.047278 -8.29526 2.620317
      CHANNELS 3 Zrotation Yrotation Xrotation
      JOINT RightShin
      {
        OFFSET 1e-06 -43.362206 -0.805556
        CHANNELS 3 Zrotation Yrotation Xrotation
        JOINT RightFoot
        {
          OFFSET 2e-06 -42.117393 -3.478398
          CHANNELS 3 Zrotation Yrotation Xrotation
          JOINT RightToeBase
          {
            OFFSET -0.0 -5.079609 13.284196
            CHANNELS 3 Zrotation Yrotation Xrotation
            JOINT RightToeEnd
            {
              OFFSET 0.009532 -1.634378 6.460591
              CHANNELS 3 Zrotation Yrotation Xrotation
            }
          }
        }
      }
    }
  }
}
MOTION
Frames: 4
Frame Time: 0.03333333333333333
0.0 0.0 0.0 0.0 -0.0 0.0 -1.998766 99.301254 3.464814 -1.751643 -0.341787 -2.878917 1.473447 -0.302402 1.142458 -0.120539 -0.591429 -4.266907 0.882806 -2.571066 12.640173 -4.916598 3.884488 -0.454327 -0.80238 -0.880222 -3.433713 6.723692 -4.577087 -6.309292 7.7e-05 -2.3e-05 6e-06 -0.018241 0.020249 0.038461 0.750028 -3.703279 -10.520462 -0.785214 3.753603 -10.572094 -20.587072 -3.86949 13.525752 -49.162735 -4.193377 24.142595 0.621867 -45.610531 0.213886 -10.110854 15.496938 8.794254 -5.882111 9.86129 0.702592 -10.936878 -0.360574 7.156208 -1e-06 8.77483 -1e-06 -16.525236 17.616587 5.892404 -1.844034 2.498506 -2.507277 -10.163606 4.678948 4.621109 -20.976034 -2e-06 1e-06 -21.226299 2.451699 -3.594001 -0.0 -6e-06 -1e-06 -1.362682 2.240799 -0.746323 -21.334929 0.584912 3.008323 -13.821221 -1e-06 2e-06 -23.887188 -0.249077 -0.839486 -60.899151 2.303006 -1.241311 -0.294025 1.679688 0.833256 -14.218218 0.093217 1.300581 -34.212074 -0.287562 0.967167 -20.03323 0.964539 1.212841 -0.0 1e-06 0.0 -3.44039 0.788234 0.501654 -15.928198 -3.16731 2.999707 -6.338831 -1e-06 0.0 -18.123459 3.648185 -4.905674 -4e-06 -0.0 -3e-06 21.851814 8.568912 14.651657 50.358376 3.977482 22.193148 1.120056 41.992622 0.92761 16.443098 -16.736891 33.141327 2.243542 -5.255037 -3.180157 14.282896 -0.826595 6.952503 -1e-06 -12.690607 1e-06 15.810112 -17.522327 2.648016 1.665667 -1.955922 -2.878299 4.7278 -4.170588 4.993925 11.020528 2e-06 -1e-06 12.109057 -3.735716 -2.866785 1e-06 -0.0 0.0 1.291986 -1.928549 -1.49809 14.800129 0.567467 3.865608 14.242574 -1.341737 -6.660659 19.631969 0.143926 -0.648245 49.663486 -0.643306 -6.628425 0.353029 -1.51115 -0.03194 20.222797 3.684308 2.316629 18.787279 4e-06 -2e-06 10.751633 -0.479869 1.397905 -1e-06 -1e-06 -0.0 3.273808 0.305948 -0.580111 21.486816 11.830372 2.266131 8.162926 1e-06 -0.0 18.399088 -3.798985 -4.940577 1e-06 1e-06 -0.0 9.959393 18.304155 0.683751 -0.044967 -0.12289 13.588255 -11.446164 -1.011232 -8.818435 1.572052 -1.974262 -0.810244 0.0 -1e-06 2e-06 -6.260633 -22.099886 0.45477 0.043763 -0.184747 10.519511 7.503859 1.825874 -5.170462 -1.415401 0.941869 -0.594185 -0.0 0.0 -1e-06 
0.0 0.0 0.0 0.0 -0.0 0.0 -1.873227 99.267578 3.51777 -1.71412 -0.554656 -2.744437 1.488499 -0.364544 1.309354 -0.102848 -0.600394 -4.20948 0.935579 -2.604571 12.56304 -5.064524 4.05394 -0.503324 -0.711334 -0.906414 -3.486952 6.580103 -4.414192 -6.76945 7.7e-05 -2.3e-05 6e-06 -0.020851 0.001942 0.031886 0.723526 -3.7211 -10.479131 -0.763137 3.734283 -10.532798 -20.323837 -3.821639 13.594519 -48.024883 -3.313188 23.005293 -0.137637 -48.191719 0.649352 -10.758712 15.755921 9.903342 -5.88211 9.861293 0.702591 -10.936878 -0.360574 7.156209 1e-06 8.774831 1e-06 -16.304657 17.607695 5.974348 -1.844034 2.498506 -2.507281 -10.163606 4.678948 4.621113 -20.97604 -4e-06 0.0 -21.226301 2.451696 -3.594004 -0.0 -6e-06 -2e-06 -1.362682 2.2408 -0.746324 -21.334929 0.58491 3.008322 -13.821221 -3e-06 0.0 -23.887184 -0.249081 -0.839483 -60.611183 2.265712 -1.292137 -0.294025 1.679689 0.833258 -14.218217 0.093215 1.300581 -34.212074 -0.287567 0.967169 -20.033228 0.964535 1.212843 0.0 1e-06 -0.0 -3.44039 0.788234 0.501657 -15.928196 -3.167312 2.999708 -6.33883 -2e-06 0.0 -18.123459 3.648183 -4.905677 -4e-06 0.0 -3e-06 21.586611 8.792909 14.618296 49.478756 3.524357 20.827213 1.747831 44.500298 1.273726 19.193937 -19.999958 30.998926 2.243543 -5.255037 -3.180159 14.282894 -0.826596 6.952503 -1e-06 -12.690602 -0.0 15.551735 -17.594666 2.920275 1.665667 -1.955922 -2.878299 4.7278 -4.170587 4.993923 11.020529 2e-06 -2e-06 12.109055 -3.735715 -2.866785 1e-06 -0.0 0.0 1.291986 -1.928549 -1.498089 14.800132 0.567467 3.865606 14.242577 -1.341737 -6.660659 19.631975 0.143925 -0.648247 49.893963 -0.498585 -6.633597 0.353029 -1.511151 -0.03194 20.222799 3.684308 2.316628 18.787277 3e-06 -3e-06 10.751628 -0.479869 1.397905 -2e-06 0.0 0.0 3.273808 0.305947 -0.580111 21.48682 11.830373 2.266133 8.162929 0.0 -0.0 18.399088 -3.798984 -4.940578 3e-06 1e-06 -1e-06 9.762155 18.115849 0.458038 -0.062495 -0.145921 13.901001 -11.704725 -0.726582 -9.118067 1.569085 -1.977354 -1.015401 0.0 0.0 2e-06 -6.277814 -21.690796 0.06747 0.047791 -0.19154 10.938429 7.458427 1.70785 -5.370244 -1.425497 0.926615 -0.608421 -0.0 0.0 -1e-06 
0.0 0.0 0.0 0.0 -0.0 0.0 -1.54819 99.175194 3.693418 -1.607444 -0.875504 -2.684416 1.488087 -0.403654 1.636064 -0.057998 -0.638943 -4.127535 0.961738 -2.659553 12.371052 -5.21205 4.172201 -0.57385 -0.586765 -0.843157 -3.543787 6.249359 -4.23994 -7.140417 7.7e-05 -2.3e-05 6e-06 -0.014949 0.017881 0.037268 0.704165 -3.706172 -10.462665 -0.731176 3.750679 -10.520469 -19.49011 -4.063164 13.586561 -46.085194 -2.046242 21.863182 -0.971847 -52.374779 1.254871 -12.609621 16.357857 12.568953 -5.882108 9.861288 0.70259 -10.936874 -0.360575 7.156206 1e-06 8.774826 -1e-06 -16.093206 17.651548 6.120645 -1.844033 2.498504 -2.507278 -10.163603 4.678946 4.621109 -20.97603 -4e-06 3e-06 -21.226292 2.451696 -3.593999 1e-06 -6e-06 -0.0 -1.362682 2.240798 -0.746323 -21.334921 0.584909 3.008323 -13.821218 -2e-06 1e-06 -23.887182 -0.24908 -0.839482 -60.550419 2.2494 -1.287119 -0.294025 1.679688 0.833255 -14.218214 0.093214 1.300581 -34.212063 -0.287566 0.967171 -20.033216 0.964536 1.212845 0.0 0.0 -0.0 -3.44039 0.788233 0.501655 -15.928191 -3.16731 2.999707 -6.338828 -0.0 2e-06 -18.123453 3.648183 -4.905672 -5e-06 1e-06 -1e-06 20.543785 9.119122 14.257562 48.137184 2.932235 18.577894 2.332686 49.707329 1.662063 23.043932 -23.794306 27.17511 2.243542 -5.255039 -3.180159 14.282902 -0.826593 6.952507 -6e-06 -12.690611 0.0 15.444721 -17.631086 3.196322 1.665667 -1.955922 -2.8783 4.727801 -4.170589 4.993926 11.020535 4e-06 -0.0 12.109059 -3.735717 -2.866784 1e-06 0.0 -0.0 1.291986 -1.92855 -1.498091 14.80014 0.567471 3.865612 14.242581 -1.341735 -6.66066 19.631983 0.143928 -0.648242 50.376404 -0.304603 -6.658479 0.353029 -1.511152 -0.03194 20.222807 3.684315 2.316632 18.787289 6e-06 2e-06 10.751637 -0.479869 1.397908 -1e-06 0.0 0.0 3.273809 0.305948 -0.58011 21.486832 11.830384 2.266136 8.162933 1e-06 1e-06 18.399092 -3.798986 -4.940575 3e-06 -1e-06 -1e-06 9.37232 17.77734 0.254601 -0.056778 -0.139507 14.552044 -11.762373 -0.314203 -9.776356 1.571811 -2.024576 -1.151558 0.0 0.0 2e-06 -6.525726 -20.945848 -0.369633 0.057185 -0.178664 11.732102 7.562554 1.283653 -5.810434 -1.433843 0.906904 -0.519902 0.0 0.0 -1e-06 
0.0 0.0 0.0 0.0 -0.0 0.0 -1.237038 99.025497 3.82196 -1.446921 -1.304922 -2.704949 1.465678 -0.42833 1.96708 -0.014311 -0.561173 -3.978751 0.942837 -2.825146 12.081096 -5.367659 4.142412 -0.6222 -0.386054 -0.531255 -3.572654 5.7575 -3.824836 -7.365625 7.7e-05 -2.3e-05 6e-06 -0.005488 0.049434 0.042622 0.690121 -3.679534 -10.52098 -0.697772 3.788424 -10.584509 -17.909115 -4.369708 13.160419 -43.200691 -0.595731 20.777609 -1.400846 -57.545132 1.621433 -14.975234 17.011154 20.282141 -5.88211 9.861286 0.70259 -10.936877 -0.360574 7.156206 1e-06 8.774828 0.0 -16.004606 17.489246 6.159816 -1.844034 2.498505 -2.507279 -10.163604 4.678946 4.621108 -20.976032 -4e-06 1e-06 -21.226295 2.451697 -3.594001 0.0 -6e-06 0.0 -1.362682 2.240798 -0.746324 -21.334925 0.58491 3.008322 -13.821221 -3e-06 0.0 -23.887182 -0.249081 -0.839484 -60.61845 2.149549 -1.043625 -0.294026 1.679687 0.833256 -14.218215 0.093215 1.300579 -34.212067 -0.287565 0.967167 -20.033224 0.964535 1.212842 -1e-06 0.0 0.0 -3.44039 0.788234 0.501656 -15.928192 -3.16731 2.999706 -6.338829 -2e-06 1e-06 -18.123457 3.648183 -4.905671 -3e-06 0.0 -1e-06 18.753416 9.446851 13.563844 46.373543 2.71006 15.369984 2.052598 56.984455 1.494047 22.889246 -24.106749 25.721903 2.243543 -5.255038 -3.180158 14.2829 -0.826596 6.952505 -3e-06 -12.690609 2e-06 15.487451 -17.441086 3.342388 1.665667 -1.955922 -2.8783 4.727801 -4.170588 4.993927 11.020534 3e-06 -3e-06 12.109058 -3.735717 -2.866785 0.0 -0.0 -0.0 1.291987 -1.92855 -1.498088 14.800138 0.567468 3.865608 14.24258 -1.341735 -6.660661 19.631981 0.143927 -0.648246 50.948692 -0.316203 -6.646651 0.353029 -1.511151 -0.03194 20.222803 3.684311 2.316629 18.787283 5e-06 0.0 10.751637 -0.479867 1.397906 -2e-06 0.0 1e-06 3.273809 0.305947 -0.580112 21.486828 11.830378 2.26613 8.162933 -0.0 -1e-06 18.399094 -3.798985 -4.940578 2e-06 -0.0 -0.0 8.896506 17.279875 -0.041451 -0.018 -0.153847 15.526808 -11.690918 0.337926 -10.643618 1.57435 -2.060077 -1.302777 -0.0 0.0 2e-06 -6.850004 -20.142569 -1.051471 0.081503 -0.176709 13.100421 7.845419 0.881193 -6.50351 -1.434408 0.905364 -0.513459 -0.0 0.0 -1e-06 
